<?xml version="1.0" encoding="iso-8859-1"?>
<!-- Uploaded to: SVG Repo, www.svgrepo.com, Generator: SVG Repo Mixer Tools -->
<svg fill="#000000" height="800px" width="800px" version="1.1" id="Layer_1" xmlns="http://www.w3.org/2000/svg" xmlns:xlink="http://www.w3.org/1999/xlink" 
	 viewBox="0 0 512 512" xml:space="preserve">
<g>
	<g>
		<path d="M499.065,77.573c-7.78-7.78-18.695-12.674-30.772-12.674H43.707c-12.071,0-22.989,4.89-30.772,12.674
			C4.594,85.832,0,96.853,0,108.606v294.787c0,24.1,19.607,43.707,43.707,43.707h424.585c24.1,0,43.707-19.607,43.707-43.707
			V108.606C512,96.853,507.406,85.832,499.065,77.573z M447.393,102.363C439.766,109.836,268.62,277.57,256,289.938
			C243.182,277.377,72.128,109.733,64.608,102.363H447.393z M474.537,403.394c0,3.443-2.801,6.244-6.244,6.244H43.707
			c-3.443,0-6.244-2.801-6.244-6.244V128.215l205.426,201.33c7.267,7.121,18.924,7.152,26.222,0l205.426-201.33V403.394z"/>
	</g>
</g>
</svg>